<svg width="220" height="220" viewBox="0 0 220 220" fill="none" xmlns="http://www.w3.org/2000/svg">
  <rect width="220" height="220" rx="18" fill="#F7F0EA"/>
  <rect x="18" y="18" width="58" height="58" fill="#1F1A1C"/>
  <rect x="30" y="30" width="34" height="34" fill="#F7F0EA"/>
  <rect x="144" y="18" width="58" height="58" fill="#1F1A1C"/>
  <rect x="156" y="30" width="34" height="34" fill="#F7F0EA"/>
  <rect x="18" y="144" width="58" height="58" fill="#1F1A1C"/>
  <rect x="30" y="156" width="34" height="34" fill="#F7F0EA"/>
  <rect x="86" y="86" width="48" height="48" fill="#1F1A1C"/>
  <rect x="92" y="92" width="36" height="36" fill="#F7F0EA"/>
  <rect x="144" y="144" width="28" height="28" fill="#1F1A1C"/>
  <rect x="178" y="178" width="12" height="12" fill="#1F1A1C"/>
  <rect x="170" y="110" width="20" height="20" fill="#1F1A1C"/>
  <rect x="116" y="156" width="20" height="20" fill="#1F1A1C"/>
  <rect x="116" y="30" width="20" height="20" fill="#1F1A1C"/>
  <rect x="56" y="110" width="20" height="20" fill="#1F1A1C"/>
</svg>
